<?xml version="1.0" encoding="utf-8"?>
<!-- Generator: Adobe Illustrator 26.0.2, SVG Export Plug-In . SVG Version: 6.00 Build 0)  -->
<svg version="1.1" id="Layer_1" xmlns="http://www.w3.org/2000/svg" xmlns:xlink="http://www.w3.org/1999/xlink" x="0px" y="0px"
	 viewBox="0 0 612 377" style="enable-background:new 0 0 612 377;" xml:space="preserve">
<style type="text/css">
	.st0{fill:#FFFFFF;}
</style>
<g>
	<path class="st0" d="M60.5,352.1c3.4-2.7,5.1-6.4,5.1-11c0-4.6-1.7-8.3-5.1-11c-3.4-2.7-8-4-13.9-4H6v-16.4h41.1
		c10.7,0,18.8,2.9,24.5,8.8c5.7,5.9,8.6,13.4,8.6,22.6c0,9.2-2.9,16.7-8.6,22.7c-5.7,5.9-13.9,8.9-24.5,8.9H6v-16.4h40.6
		C52.5,356.2,57.1,354.9,60.5,352.1z"/>
	<path class="st0" d="M6,248.9v-16.4h73.5v16.4l-46,35h46v16.4H6V285l47.3-36.1H6z"/>
	<path class="st0" d="M6,222.1v-16.4h73.5v16.4H6z"/>
	<path class="st0" d="M20.2,164.2h59.3v16.4H20.2v20.8H6v-58h14.2V164.2z"/>
	<path class="st0" d="M112.9,315.4c6.4-7,15.3-10.5,26.8-10.5c11.4,0,20.5,3.4,27.1,10.2c6.7,6.8,10,17.3,10,31.3v25.1h-73.5v-26
		C103.3,332.5,106.5,322.4,112.9,315.4z M156.6,327.5c-3.8-4-9.3-6-16.5-6c-7.2,0-12.8,2-16.7,6c-3.9,4-5.8,10.2-5.8,18.6v9.1h44.7
		v-10.4C162.2,337.3,160.3,331.5,156.6,327.5z"/>
	<path class="st0" d="M103.3,298.4V282h73.5v16.4H103.3z"/>
	<path class="st0" d="M139.3,223.9v-16.5h26.1c8.1,7.3,12.2,17.4,12.2,30.3c0,10.8-3.6,19.8-10.7,27.2c-7.1,7.3-16.2,11-27.1,11
		c-10.9,0-20-3.7-27.3-11.2c-7.3-7.5-10.9-16.5-10.9-27c0-10.5,3.5-19.7,10.4-27.5l12.3,8.5c-2.9,3.3-4.9,6.3-5.9,9.1
		c-1.1,2.8-1.6,5.8-1.6,9c0,6.2,2.1,11.5,6.4,15.8c4.2,4.3,9.8,6.4,16.8,6.4c6.9,0,12.5-2,16.7-6.1c4.2-4.1,6.3-9,6.3-14.7
		c0-5.7-1.1-10.4-3.3-14.2H139.3z"/>
	<path class="st0" d="M103.3,200.5v-16.4h73.5v16.4H103.3z"/>
	<path class="st0" d="M117.5,142.5h59.3v16.4h-59.3v20.8h-14.2v-58h14.2V142.5z"/>
	<path class="st0" d="M352.2,152.5c9.1-12.8,13.6-25.2,13.6-37.2c0-12-3.9-22-11.8-30c-7.9-8-18-12.1-30.3-12.1
		c-22.6,0-44,16.1-64.2,48.2l-64.2-38c16.8-26,35.2-45.7,55.2-59c20-13.3,45.5-20,76.5-20c31,0,58.2,9.8,81.6,29.5
		c23.4,19.7,35.2,46.4,35.2,80.3c0,18.5-4.7,36.2-14.1,53.1c-9.4,16.9-26.8,38.6-52.1,64.9l-64.7,67.2h141.7v71.9h-253v-59.5
		l105.2-107.8C328,182.6,343.1,165.4,352.2,152.5z"/>
	<path class="st0" d="M460.8,12.7H606v358.7h-77V80.9h-68.3V12.7z"/>
	<path class="st0" d="M176.7,52.1h-73.5V35.7h58.9V4.4h14.6V52.1z"/>
	<path class="st0" d="M176.7,70.4l-15.9,6.8v30.8l15.9,6.8v17.4l-73.5-31.7V84.7L176.7,53V70.4z M125.1,92.6l21.3,9.2V83.5
		L125.1,92.6z"/>
	<path class="st0" d="M15.6,21.9c6.4-7,15.3-10.5,26.8-10.5c11.4,0,20.5,3.4,27.1,10.2c6.7,6.8,10,17.3,10,31.3V78H6V52
		C6,38.9,9.2,28.9,15.6,21.9z M59.3,33.9c-3.8-4-9.3-6-16.5-6c-7.2,0-12.8,2-16.7,6c-3.9,4-5.8,10.2-5.8,18.6v9.1H65V51.2
		C65,43.7,63.1,37.9,59.3,33.9z"/>
	<path class="st0" d="M6,86.1h14.6v36.6h15.1V89.8h14v32.9H65V84.9h14.5v54.1H6V86.1z"/>
</g>
</svg>
